<svg width="14" height="14" viewBox="0 0 14 14" fill="none" xmlns="http://www.w3.org/2000/svg">
<path d="M13.3 0.699984C12.9134 0.313384 12.2866 0.313384 11.9 0.699984L6.99998 5.59998L2.09998 0.699984C1.71338 0.313384 1.08658 0.313384 0.699984 0.699984C0.313384 1.08658 0.313384 1.71338 0.699984 2.09998L5.59998 6.99998L0.699984 11.9C0.313384 12.2866 0.313384 12.9134 0.699984 13.3C1.08658 13.6866 1.71338 13.6866 2.09998 13.3L6.99998 8.39998L11.9 13.3C12.2866 13.6866 12.9134 13.6866 13.3 13.3C13.6866 12.9134 13.6866 12.2866 13.3 11.9L8.39998 6.99998L13.3 2.09998C13.6866 1.71338 13.6866 1.08658 13.3 0.699984Z" fill="black"/>
</svg>
